<svg viewBox="0 0 118 69" xmlns="http://www.w3.org/2000/svg">
    <path d="M12.26 4.92H9.57c-.18 0-.3.12-.3.3V20.7c0 .18-.119.3-.298.3H3.588c-.18 0-.299-.12-.299-.3V5.22c0-.18-.12-.3-.299-.3H.3c-.181 0-.3-.12-.3-.3V.3C0 .12.12 0 .299 0H12.26c.18 0 .3.12.3.3v4.32c0 .18-.12.3-.3.3zm16.097-1.53V20.7a.3.3 0 01-.299.3h-5.382c-.18 0-.3-.12-.3-.3v-5.22a.3.3 0 00-.298-.3h-1.495a.3.3 0 00-.3.3v5.22c0 .18-.119.3-.298.3h-5.383a.3.3 0 01-.299-.3V3.39C14.303 1.53 16.127 0 18.4 0h5.86c2.273 0 4.097 1.53 4.097 3.39zm-5.98 6.45V5.25c0-.51-.479-.72-1.047-.72s-1.046.21-1.046.72v4.59c0 .18.12.3.299.3h1.495c.18 0 .299-.12.299-.3zm21.869-6.45v5.88c0 .18-.12.3-.3.3-.06 0-.12 0-.568-.15l-4.336-1.41c-.15-.06-.299-.12-.299-.3V5.1c0-.51-.508-.72-1.136-.72-.628 0-1.136.21-1.136.72v10.8c0 .51.508.72 1.136.72.628 0 1.136-.21 1.136-.72v-3.12c0-.18.15-.24.3-.3l4.335-1.41c.449-.15.509-.15.568-.15.18 0 .3.12.3.3v6.39c0 1.86-1.825 3.39-4.097 3.39h-5.622c-2.273 0-4.097-1.53-4.097-3.39V3.39c0-1.86 1.824-3.39 4.097-3.39h5.622c2.272 0 4.097 1.53 4.097 3.39zm16.396 0v14.22c0 1.86-1.824 3.39-4.097 3.39h-6.16c-2.272 0-4.097-1.53-4.097-3.39V3.39c0-1.86 1.825-3.39 4.097-3.39h6.16c2.273 0 4.097 1.53 4.097 3.39zM52.329 5.1v10.8c0 .51.508.72 1.136.72.628 0 1.136-.21 1.136-.72V5.1c0-.51-.508-.72-1.136-.72-.628 0-1.136.21-1.136.72zm21.63-2.85C74.525.93 76.021 0 77.815 0h2.96c2.273 0 4.097 1.53 4.097 3.39V20.7a.3.3 0 01-.3.3H79.19c-.18 0-.299-.12-.299-.3V5.25c0-.51-.478-.72-1.046-.72-.569 0-1.047.21-1.047.72V20.7c0 .18-.12.3-.299.3h-5.383a.3.3 0 01-.299-.3V5.25c0-.51-.478-.72-1.046-.72-.568 0-1.047.21-1.047.72V20.7c0 .18-.12.3-.299.3h-5.382a.3.3 0 01-.3-.3V.3c0-.15.12-.3.3-.3H70.1c1.794 0 3.29.93 3.857 2.25zM101 3.39V20.7a.3.3 0 01-.299.3h-5.383c-.179 0-.299-.12-.299-.3v-5.22a.3.3 0 00-.299-.3h-1.495a.3.3 0 00-.299.3v5.22c0 .18-.12.3-.299.3h-5.382a.3.3 0 01-.3-.3V3.39c0-1.86 1.825-3.39 4.097-3.39h5.861C99.176 0 101 1.53 101 3.39zm-5.98 6.45V5.25c0-.51-.479-.72-1.047-.72s-1.047.21-1.047.72v4.59c0 .18.12.3.3.3h1.494c.18 0 .3-.12.3-.3zM7.034 28.5v6.39c0 .18.119.3.297.3h.832c.625 0 1.13-.21 1.13-.72v-5.55c0-.51-.505-.72-1.13-.72h-.832c-.178 0-.297.12-.297.3zm3.894 10.8H7.33c-.178 0-.297.12-.297.3v5.1c0 .18-.119.3-.297.3h-5.44C1.12 45 1 44.88 1 44.7V24.3c0-.18.119-.3.297-.3h9.63C13.188 24 15 25.53 15 27.39v8.52c0 1.86-1.813 3.39-4.072 3.39zm11.78-10.8v4.62c0 .18.119.3.297.3h.832c.625 0 1.13-.21 1.13-.72v-3.78c0-.51-.505-.72-1.13-.72h-.832c-.178 0-.297.12-.297.3zM22.41 45h-5.44c-.178 0-.297-.12-.297-.3V24.3c0-.18.119-.3.297-.3h9.63c2.26 0 4.073 1.53 4.073 3.39v4.92c0 1.47-1.13 2.76-2.735 3.21 1.754.39 3.032 1.71 3.032 3.27v5.91c0 .18-.119.3-.297.3h-5.41c-.178 0-.297-.12-.297-.3v-6.27c0-.51-.505-.72-1.13-.72h-.832c-.178 0-.297.12-.297.3v6.69c0 .18-.119.3-.297.3zm16.15-15.63v2.31c0 .18.118.3.296.3h4.073c.148 0 .267.12.267.3v4.35c0 .15-.119.27-.267.27h-4.073a.3.3 0 00-.297.3v2.61c0 .15.12.3.297.3h4.459c.149 0 .267.12.267.27v4.32c0 .18-.118.3-.267.3H33.299a.3.3 0 01-.297-.3V24.3a.3.3 0 01.297-.3h9.868c.149 0 .268.12.268.3v4.5c0 .15-.119.27-.268.27h-4.31a.3.3 0 00-.297.3zm12.285-.6v.99c0 1.26.654 1.68 1.872 2.31l3.627 1.83c1.248.66 1.991 1.77 1.991 3.51v4.2c0 1.86-1.813 3.39-4.072 3.39h-4.578c-2.259 0-4.072-1.53-4.072-3.39v-5.25c0-.18.12-.3.297-.3.09 0 .327.09.565.21l4.072 2.07c.179.09.298.21.298.3v1.56c0 .51.505.72 1.13.72.623 0 1.129-.21 1.129-.72v-.96c0-1.26-.654-1.68-1.873-2.31l-3.626-1.83c-1.249-.66-1.992-1.77-1.992-3.51v-4.2c0-1.86 1.813-3.39 4.072-3.39h4.34c2.26 0 4.072 1.53 4.072 3.39v5.16c0 .18-.119.3-.297.3-.09 0-.327-.09-.565-.21l-3.834-1.95c-.178-.09-.297-.21-.297-.3v-1.62c0-.51-.506-.72-1.13-.72-.624 0-1.13.21-1.13.72zm14.693 0v.99c0 1.26.654 1.68 1.872 2.31l3.627 1.83c1.248.66 1.991 1.77 1.991 3.51v4.2c0 1.86-1.813 3.39-4.072 3.39h-4.578c-2.259 0-4.072-1.53-4.072-3.39v-5.25c0-.18.12-.3.298-.3.089 0 .327.09.564.21l4.072 2.07c.179.09.298.21.298.3v1.56c0 .51.505.72 1.13.72.623 0 1.129-.21 1.129-.72v-.96c0-1.26-.654-1.68-1.873-2.31L62.3 35.1c-1.249-.66-1.992-1.77-1.992-3.51v-4.2c0-1.86 1.813-3.39 4.072-3.39h4.34c2.26 0 4.072 1.53 4.072 3.39v5.16c0 .18-.119.3-.297.3-.09 0-.327-.09-.565-.21l-3.834-1.95c-.178-.09-.297-.21-.297-.3v-1.62c0-.51-.506-.72-1.13-.72-.624 0-1.13.21-1.13.72zm17.517 10.98V24.3c0-.18.118-.3.297-.3h5.35a.3.3 0 01.297.3v17.31c0 1.86-1.813 3.39-4.072 3.39h-5.826c-2.259 0-4.072-1.53-4.072-3.39V24.3a.3.3 0 01.297-.3h5.35c.179 0 .298.12.298.3v15.45c0 .51.475.72 1.04.72.565 0 1.04-.21 1.04-.72zM97.124 28.5v4.62c0 .18.12.3.298.3h.832c.624 0 1.13-.21 1.13-.72v-3.78c0-.51-.506-.72-1.13-.72h-.832c-.179 0-.298.12-.298.3zM96.827 45h-5.44c-.178 0-.297-.12-.297-.3V24.3c0-.18.12-.3.298-.3h9.63c2.26 0 4.072 1.53 4.072 3.39v4.92c0 1.47-1.13 2.76-2.734 3.21 1.753.39 3.032 1.71 3.032 3.27v5.91c0 .18-.12.3-.298.3h-5.41c-.178 0-.297-.12-.297-.3v-6.27c0-.51-.505-.72-1.13-.72h-.831c-.179 0-.298.12-.298.3v6.69c0 .18-.119.3-.297.3zm16.15-15.63v2.31c0 .18.119.3.297.3h4.072c.149 0 .268.12.268.3v4.35c0 .15-.12.27-.268.27h-4.072a.3.3 0 00-.297.3v2.61c0 .15.119.3.297.3h4.458c.15 0 .268.12.268.27v4.32c0 .18-.119.3-.268.3h-10.016a.3.3 0 01-.298-.3V24.3a.3.3 0 01.298-.3h9.868c.148 0 .267.12.267.3v4.5c0 .15-.119.27-.267.27h-4.31a.3.3 0 00-.297.3zM12.033 66.75C11.466 68.07 9.976 69 8.186 69h-3.1C2.818 69 1 67.47 1 65.61V48.3c0-.18.15-.3.298-.3h5.368c.179 0 .298.12.298.3v15.45c0 .51.477.72 1.043.72.567 0 1.044-.21 1.044-.72V48.3c0-.18.15-.3.298-.3h5.368c.179 0 .298.12.298.3v15.45c0 .51.477.72 1.044.72.566 0 1.043-.21 1.043-.72V48.3c0-.18.12-.3.298-.3h5.368a.3.3 0 01.298.3v17.31c0 1.86-1.819 3.39-4.085 3.39H15.88c-1.79 0-3.28-.93-3.847-2.25zm27.115-15.36V68.7a.3.3 0 01-.298.3h-5.368c-.178 0-.298-.12-.298-.3v-5.22a.3.3 0 00-.298-.3h-1.49a.3.3 0 00-.3.3v5.22c0 .18-.118.3-.297.3H25.43a.3.3 0 01-.298-.3V51.39c0-1.86 1.82-3.39 4.085-3.39h5.845c2.266 0 4.085 1.53 4.085 3.39zm-5.964 6.45v-4.59c0-.51-.477-.72-1.043-.72-.567 0-1.044.21-1.044.72v4.59c0 .18.12.3.298.3h1.491c.179 0 .298-.12.298-.3zm13.25-5.07v.99c0 1.26.655 1.68 1.878 2.31l3.638 1.83c1.252.66 1.998 1.77 1.998 3.51v4.2c0 1.86-1.82 3.39-4.085 3.39H45.27c-2.266 0-4.085-1.53-4.085-3.39v-5.25c0-.18.12-.3.298-.3.09 0 .328.09.567.21l4.085 2.07c.18.09.298.21.298.3v1.56c0 .51.507.72 1.134.72.626 0 1.133-.21 1.133-.72v-.96c0-1.26-.656-1.68-1.879-2.31l-3.638-1.83c-1.252-.66-1.998-1.77-1.998-3.51v-4.2c0-1.86 1.82-3.39 4.085-3.39h4.354c2.266 0 4.085 1.53 4.085 3.39v5.16c0 .18-.119.3-.298.3-.09 0-.328-.09-.566-.21l-3.847-1.95c-.179-.09-.298-.21-.298-.3v-1.62c0-.51-.507-.72-1.133-.72-.627 0-1.134.21-1.134.72zm17.9-4.77h5.368a.3.3 0 01.298.3v20.4a.3.3 0 01-.298.3h-5.368c-.179 0-.298-.12-.298-.3v-7.35a.3.3 0 00-.298-.3h-1.49a.3.3 0 00-.3.3v7.35c0 .18-.118.3-.297.3h-5.368a.3.3 0 01-.298-.3V48.3c0-.18.15-.3.298-.3h5.368c.179 0 .298.12.298.3v7.23c0 .18.12.3.298.3h1.491c.179 0 .298-.12.298-.3V48.3c0-.18.12-.3.298-.3z" fill="#EFCDC7"/>
</svg>
