<?xml version="1.0" encoding="UTF-8"?>
<svg width="201px" height="69px" viewBox="0 0 201 69" version="1.1" xmlns="http://www.w3.org/2000/svg" xmlns:xlink="http://www.w3.org/1999/xlink">
    <!-- Generator: Sketch 57.1 (83088) - https://sketch.com -->
    <title>Artboard Copy 3</title>
    <desc>Created with Sketch.</desc>
    <g id="Artboard-Copy-3" stroke="none" stroke-width="1" fill="none" fill-rule="evenodd">
        <g id="T" fill="#3A3A3A">
            <path d="M69,-1.42108547e-13 L69,69 L21.074,68.999 L30.114,59.959 L59.7754011,59.959893 L59.7754011,9.04010695 L9.22459893,9.04010695 L9.22459893,59.959893 L17.069,59.959 L8.029,68.999 L0,69 L0,-1.42108547e-13 L69,-1.42108547e-13 Z M50.5508021,18.2647059 L50.5508021,27.4893048 L39.1122995,27.4893048 L39.112,37.915 L29.887,47.14 L29.8877005,27.4893048 L18.4491979,27.4893048 L18.4491979,18.2647059 L50.5508021,18.2647059 Z" id="Combined-Shape"></path>
        </g>
        <path d="M95.260171,4.92 L92.568914,4.92 C92.3894969,4.92 92.2698854,5.04 92.2698854,5.22 L92.2698854,20.7 C92.2698854,20.88 92.150274,21 91.9708569,21 L86.5883427,21 C86.4089256,21 86.2893142,20.88 86.2893142,20.7 L86.2893142,5.22 C86.2893142,5.04 86.1697028,4.92 85.9902856,4.92 L83.2990286,4.92 C83.1196114,4.92 83,4.8 83,4.62 L83,0.3 C83,0.12 83.1196114,0 83.2990286,0 L95.260171,0 C95.4395882,0 95.5591996,0.12 95.5591996,0.3 L95.5591996,4.62 C95.5591996,4.8 95.4395882,4.92 95.260171,4.92 Z M111.357499,3.39 L111.357499,20.7 C111.357499,20.88 111.207985,21 111.058471,21 L105.675956,21 C105.496539,21 105.376928,20.88 105.376928,20.7 L105.376928,15.48 C105.376928,15.33 105.257317,15.18 105.077899,15.18 L103.582757,15.18 C103.403339,15.18 103.283728,15.33 103.283728,15.48 L103.283728,20.7 C103.283728,20.88 103.164117,21 102.984699,21 L97.6021853,21 C97.452671,21 97.3031568,20.88 97.3031568,20.7 L97.3031568,3.39 C97.3031568,1.53 99.127231,0 101.399848,0 L107.260808,0 C109.533425,0 111.357499,1.53 111.357499,3.39 Z M105.376928,9.84 L105.376928,5.25 C105.376928,4.74 104.898482,4.53 104.330328,4.53 C103.762174,4.53 103.283728,4.74 103.283728,5.25 L103.283728,9.84 C103.283728,10.02 103.403339,10.14 103.582757,10.14 L105.077899,10.14 C105.257317,10.14 105.376928,10.02 105.376928,9.84 Z M127.245507,3.39 L127.245507,9.27 C127.245507,9.45 127.125896,9.57 126.946479,9.57 C126.886673,9.57 126.826867,9.57 126.378324,9.42 L122.04241,8.01 C121.892896,7.95 121.743382,7.89 121.743382,7.71 L121.743382,5.1 C121.743382,4.59 121.235033,4.38 120.607073,4.38 C119.979113,4.38 119.470765,4.59 119.470765,5.1 L119.470765,15.9 C119.470765,16.41 119.979113,16.62 120.607073,16.62 C121.235033,16.62 121.743382,16.41 121.743382,15.9 L121.743382,12.78 C121.743382,12.6 121.892896,12.54 122.04241,12.48 L126.378324,11.07 C126.826867,10.92 126.886673,10.92 126.946479,10.92 C127.125896,10.92 127.245507,11.04 127.245507,11.22 L127.245507,17.61 C127.245507,19.47 125.421433,21 123.148816,21 L117.527079,21 C115.254462,21 113.430388,19.47 113.430388,17.61 L113.430388,3.39 C113.430388,1.53 115.254462,0 117.527079,0 L123.148816,0 C125.421433,0 127.245507,1.53 127.245507,3.39 Z M143.641864,3.39 L143.641864,17.61 C143.641864,19.47 141.81779,21 139.545173,21 L133.385184,21 C131.112567,21 129.288493,19.47 129.288493,17.61 L129.288493,3.39 C129.288493,1.53 131.112567,0 133.385184,0 L139.545173,0 C141.81779,0 143.641864,1.53 143.641864,3.39 Z M135.32887,5.1 L135.32887,15.9 C135.32887,16.41 135.837219,16.62 136.465179,16.62 C137.093138,16.62 137.601487,16.41 137.601487,15.9 L137.601487,5.1 C137.601487,4.59 137.093138,4.38 136.465179,4.38 C135.837219,4.38 135.32887,4.59 135.32887,5.1 Z M156.958226,2.25 C157.526381,0.93 159.021524,0 160.815695,0 L163.776078,0 C166.048695,0 167.872769,1.53 167.872769,3.39 L167.872769,20.7 C167.872769,20.88 167.723255,21 167.57374,21 L162.191226,21 C162.011809,21 161.892198,20.88 161.892198,20.7 L161.892198,5.25 C161.892198,4.74 161.413752,4.53 160.845598,4.53 C160.277444,4.53 159.798998,4.74 159.798998,5.25 L159.798998,20.7 C159.798998,20.88 159.679386,21 159.499969,21 L154.117455,21 C153.967941,21 153.818427,20.88 153.818427,20.7 L153.818427,5.25 C153.818427,4.74 153.339981,4.53 152.771827,4.53 C152.203672,4.53 151.725227,4.74 151.725227,5.25 L151.725227,20.7 C151.725227,20.88 151.605615,21 151.426198,21 L146.043684,21 C145.89417,21 145.744655,20.88 145.744655,20.7 L145.744655,0.3 C145.744655,0.15 145.864267,0 146.043684,0 L153.100758,0 C154.894929,0 156.390072,0.93 156.958226,2.25 Z M184,3.39 L184,20.7 C184,20.88 183.850486,21 183.700971,21 L178.318457,21 C178.13904,21 178.019429,20.88 178.019429,20.7 L178.019429,15.48 C178.019429,15.33 177.899817,15.18 177.7204,15.18 L176.225257,15.18 C176.04584,15.18 175.926229,15.33 175.926229,15.48 L175.926229,20.7 C175.926229,20.88 175.806617,21 175.6272,21 L170.244686,21 C170.095172,21 169.945658,20.88 169.945658,20.7 L169.945658,3.39 C169.945658,1.53 171.769732,0 174.042349,0 L179.903309,0 C182.175926,0 184,1.53 184,3.39 Z M178.019429,9.84 L178.019429,5.25 C178.019429,4.74 177.540983,4.53 176.972829,4.53 C176.404675,4.53 175.926229,4.74 175.926229,5.25 L175.926229,9.84 C175.926229,10.02 176.04584,10.14 176.225257,10.14 L177.7204,10.14 C177.899817,10.14 178.019429,10.02 178.019429,9.84 Z" id="TACOMA" fill="#3A3A3A" fill-rule="nonzero"></path>
        <path d="M90.0339228,28.5 L90.0339228,34.89 C90.0339228,35.07 90.1528178,35.19 90.3311603,35.19 L91.1634255,35.19 C91.7876244,35.19 92.2929283,34.98 92.2929283,34.47 L92.2929283,28.92 C92.2929283,28.41 91.7876244,28.2 91.1634255,28.2 L90.3311603,28.2 C90.1528178,28.2 90.0339228,28.32 90.0339228,28.5 Z M93.927735,39.3 L90.3311603,39.3 C90.1528178,39.3 90.0339228,39.42 90.0339228,39.6 L90.0339228,44.7 C90.0339228,44.88 89.9150277,45 89.7366852,45 L84.2972376,45 C84.118895,45 84,44.88 84,44.7 L84,24.3 C84,24.12 84.118895,24 84.2972376,24 L93.927735,24 C96.1867405,24 97.9998898,25.53 97.9998898,27.39 L97.9998898,35.91 C97.9998898,37.77 96.1867405,39.3 93.927735,39.3 Z M105.707877,28.5 L105.707877,33.12 C105.707877,33.3 105.826772,33.42 106.005115,33.42 L106.83738,33.42 C107.461579,33.42 107.966883,33.21 107.966883,32.7 L107.966883,28.92 C107.966883,28.41 107.461579,28.2 106.83738,28.2 L106.005115,28.2 C105.826772,28.2 105.707877,28.32 105.707877,28.5 Z M105.410639,45 L99.9711918,45 C99.7928492,45 99.6739542,44.88 99.6739542,44.7 L99.6739542,24.3 C99.6739542,24.12 99.7928492,24 99.9711918,24 L109.601689,24 C111.860695,24 113.673844,25.53 113.673844,27.39 L113.673844,32.31 C113.673844,33.78 112.544341,35.07 110.939258,35.52 C112.69296,35.91 113.971082,37.23 113.971082,38.79 L113.971082,44.7 C113.971082,44.88 113.852187,45 113.673844,45 L108.26412,45 C108.085778,45 107.966883,44.88 107.966883,44.7 L107.966883,38.43 C107.966883,37.92 107.461579,37.71 106.83738,37.71 L106.005115,37.71 C105.826772,37.71 105.707877,37.83 105.707877,38.01 L105.707877,44.7 C105.707877,44.88 105.588982,45 105.410639,45 Z M121.560174,29.37 L121.560174,31.68 C121.560174,31.86 121.679069,31.98 121.857411,31.98 L125.929566,31.98 C126.078185,31.98 126.19708,32.1 126.19708,32.28 L126.19708,36.63 C126.19708,36.78 126.078185,36.9 125.929566,36.9 L121.857411,36.9 C121.679069,36.9 121.560174,37.05 121.560174,37.2 L121.560174,39.81 C121.560174,39.96 121.679069,40.11 121.857411,40.11 L126.315975,40.11 C126.464594,40.11 126.583489,40.23 126.583489,40.38 L126.583489,44.7 C126.583489,44.88 126.464594,45 126.315975,45 L116.299069,45 C116.15045,45 116.001831,44.88 116.001831,44.7 L116.001831,24.3 C116.001831,24.12 116.15045,24 116.299069,24 L126.167356,24 C126.315975,24 126.43487,24.12 126.43487,24.3 L126.43487,28.8 C126.43487,28.95 126.315975,29.07 126.167356,29.07 L121.857411,29.07 C121.679069,29.07 121.560174,29.22 121.560174,29.37 Z M133.84562,28.77 L133.84562,29.76 C133.84562,31.02 134.499542,31.44 135.718216,32.07 L139.344515,33.9 C140.592913,34.56 141.336006,35.67 141.336006,37.41 L141.336006,41.61 C141.336006,43.47 139.522857,45 137.263852,45 L132.686393,45 C130.427387,45 128.614238,43.47 128.614238,41.61 L128.614238,36.36 C128.614238,36.18 128.733133,36.06 128.911476,36.06 C129.000647,36.06 129.238437,36.15 129.476227,36.27 L133.548382,38.34 C133.726725,38.43 133.84562,38.55 133.84562,38.64 L133.84562,40.2 C133.84562,40.71 134.350923,40.92 134.975122,40.92 C135.599321,40.92 136.104625,40.71 136.104625,40.2 L136.104625,39.24 C136.104625,37.98 135.450702,37.56 134.232028,36.93 L130.60573,35.1 C129.357332,34.44 128.614238,33.33 128.614238,31.59 L128.614238,27.39 C128.614238,25.53 130.427387,24 132.686393,24 L137.026062,24 C139.285067,24 141.098216,25.53 141.098216,27.39 L141.098216,32.55 C141.098216,32.73 140.979321,32.85 140.800979,32.85 C140.711808,32.85 140.474017,32.76 140.236227,32.64 L136.401863,30.69 C136.22352,30.6 136.104625,30.48 136.104625,30.39 L136.104625,28.77 C136.104625,28.26 135.599321,28.05 134.975122,28.05 C134.350923,28.05 133.84562,28.26 133.84562,28.77 Z M148.53869,28.77 L148.53869,29.76 C148.53869,31.02 149.192612,31.44 150.411286,32.07 L154.037585,33.9 C155.285983,34.56 156.029077,35.67 156.029077,37.41 L156.029077,41.61 C156.029077,43.47 154.215927,45 151.956922,45 L147.379463,45 C145.120458,45 143.307308,43.47 143.307308,41.61 L143.307308,36.36 C143.307308,36.18 143.426203,36.06 143.604546,36.06 C143.693717,36.06 143.931507,36.15 144.169297,36.27 L148.241452,38.34 C148.419795,38.43 148.53869,38.55 148.53869,38.64 L148.53869,40.2 C148.53869,40.71 149.043994,40.92 149.668193,40.92 C150.292391,40.92 150.797695,40.71 150.797695,40.2 L150.797695,39.24 C150.797695,37.98 150.143773,37.56 148.925099,36.93 L145.2988,35.1 C144.050402,34.44 143.307308,33.33 143.307308,31.59 L143.307308,27.39 C143.307308,25.53 145.120458,24 147.379463,24 L151.719132,24 C153.978137,24 155.791287,25.53 155.791287,27.39 L155.791287,32.55 C155.791287,32.73 155.672392,32.85 155.494049,32.85 C155.404878,32.85 155.167088,32.76 154.929298,32.64 L151.094933,30.69 C150.91659,30.6 150.797695,30.48 150.797695,30.39 L150.797695,28.77 C150.797695,28.26 150.292391,28.05 149.668193,28.05 C149.043994,28.05 148.53869,28.26 148.53869,28.77 Z M166.055517,39.75 L166.055517,24.3 C166.055517,24.12 166.174412,24 166.352755,24 L171.703031,24 C171.85165,24 172.000268,24.12 172.000268,24.3 L172.000268,41.61 C172.000268,43.47 170.187119,45 167.928114,45 L162.102257,45 C159.843252,45 158.030102,43.47 158.030102,41.61 L158.030102,24.3 C158.030102,24.12 158.178721,24 158.32734,24 L163.677616,24 C163.855959,24 163.974854,24.12 163.974854,24.3 L163.974854,39.75 C163.974854,40.26 164.450434,40.47 165.015185,40.47 C165.579937,40.47 166.055517,40.26 166.055517,39.75 Z M180.124388,28.5 L180.124388,33.12 C180.124388,33.3 180.243283,33.42 180.421626,33.42 L181.253891,33.42 C181.87809,33.42 182.383394,33.21 182.383394,32.7 L182.383394,28.92 C182.383394,28.41 181.87809,28.2 181.253891,28.2 L180.421626,28.2 C180.243283,28.2 180.124388,28.32 180.124388,28.5 Z M179.827151,45 L174.387703,45 C174.209361,45 174.090465,44.88 174.090465,44.7 L174.090465,24.3 C174.090465,24.12 174.209361,24 174.387703,24 L184.0182,24 C186.277206,24 188.090355,25.53 188.090355,27.39 L188.090355,32.31 C188.090355,33.78 186.960852,35.07 185.35577,35.52 C187.109471,35.91 188.387593,37.23 188.387593,38.79 L188.387593,44.7 C188.387593,44.88 188.268698,45 188.090355,45 L182.680631,45 C182.502289,45 182.383394,44.88 182.383394,44.7 L182.383394,38.43 C182.383394,37.92 181.87809,37.71 181.253891,37.71 L180.421626,37.71 C180.243283,37.71 180.124388,37.83 180.124388,38.01 L180.124388,44.7 C180.124388,44.88 180.005493,45 179.827151,45 Z M195.976685,29.37 L195.976685,31.68 C195.976685,31.86 196.09558,31.98 196.273923,31.98 L200.346077,31.98 C200.494696,31.98 200.613591,32.1 200.613591,32.28 L200.613591,36.63 C200.613591,36.78 200.494696,36.9 200.346077,36.9 L196.273923,36.9 C196.09558,36.9 195.976685,37.05 195.976685,37.2 L195.976685,39.81 C195.976685,39.96 196.09558,40.11 196.273923,40.11 L200.732486,40.11 C200.881105,40.11 201,40.23 201,40.38 L201,44.7 C201,44.88 200.881105,45 200.732486,45 L190.71558,45 C190.566961,45 190.418342,44.88 190.418342,44.7 L190.418342,24.3 C190.418342,24.12 190.566961,24 190.71558,24 L200.583867,24 C200.732486,24 200.851381,24.12 200.851381,24.3 L200.851381,28.8 C200.851381,28.95 200.732486,29.07 200.583867,29.07 L196.273923,29.07 C196.09558,29.07 195.976685,29.22 195.976685,29.37 Z" id="PRESSURE" fill="#3A3A3A" fill-rule="nonzero"></path>
        <path d="M95.0330235,66.75 C94.4664628,68.07 92.9755137,69 91.1863748,69 L88.0852006,69 C85.8189579,69 84,67.47 84,65.61 L84,48.3 C84,48.12 84.1490949,48 84.2981898,48 L89.6656067,48 C89.8445205,48 89.9637965,48.12 89.9637965,48.3 L89.9637965,63.75 C89.9637965,64.26 90.4409002,64.47 91.0074609,64.47 C91.5740215,64.47 92.0511252,64.26 92.0511252,63.75 L92.0511252,48.3 C92.0511252,48.12 92.2002202,48 92.3493151,48 L97.7167319,48 C97.8956458,48 98.0149217,48.12 98.0149217,48.3 L98.0149217,63.75 C98.0149217,64.26 98.4920254,64.47 99.0585861,64.47 C99.6251468,64.47 100.10225,64.26 100.10225,63.75 L100.10225,48.3 C100.10225,48.12 100.221526,48 100.40044,48 L105.767857,48 C105.916952,48 106.066047,48.12 106.066047,48.3 L106.066047,65.61 C106.066047,67.47 104.247089,69 101.980846,69 L98.8796722,69 C97.0905333,69 95.5995841,68.07 95.0330235,66.75 Z M122.148043,51.39 L122.148043,68.7 C122.148043,68.88 121.998948,69 121.849853,69 L116.482436,69 C116.303523,69 116.184247,68.88 116.184247,68.7 L116.184247,63.48 C116.184247,63.33 116.064971,63.18 115.886057,63.18 L114.395108,63.18 C114.216194,63.18 114.096918,63.33 114.096918,63.48 L114.096918,68.7 C114.096918,68.88 113.977642,69 113.798728,69 L108.431311,69 C108.282216,69 108.133121,68.88 108.133121,68.7 L108.133121,51.39 C108.133121,49.53 109.952079,48 112.218322,48 L118.062842,48 C120.329085,48 122.148043,49.53 122.148043,51.39 Z M116.184247,57.84 L116.184247,53.25 C116.184247,52.74 115.707143,52.53 115.140582,52.53 C114.574022,52.53 114.096918,52.74 114.096918,53.25 L114.096918,57.84 C114.096918,58.02 114.216194,58.14 114.395108,58.14 L115.886057,58.14 C116.064971,58.14 116.184247,58.02 116.184247,57.84 Z M129.433439,52.77 L129.433439,53.76 C129.433439,55.02 130.089457,55.44 131.312035,56.07 L134.949951,57.9 C136.202348,58.56 136.947823,59.67 136.947823,61.41 L136.947823,65.61 C136.947823,67.47 135.128865,69 132.862622,69 L128.270499,69 C126.004256,69 124.185298,67.47 124.185298,65.61 L124.185298,60.36 C124.185298,60.18 124.304574,60.06 124.483488,60.06 C124.572945,60.06 124.811497,60.15 125.050049,60.27 L129.13525,62.34 C129.314163,62.43 129.433439,62.55 129.433439,62.64 L129.433439,64.2 C129.433439,64.71 129.940362,64.92 130.566561,64.92 C131.192759,64.92 131.699682,64.71 131.699682,64.2 L131.699682,63.24 C131.699682,61.98 131.043664,61.56 129.821086,60.93 L126.18317,59.1 C124.930773,58.44 124.185298,57.33 124.185298,55.59 L124.185298,51.39 C124.185298,49.53 126.004256,48 128.270499,48 L132.62407,48 C134.890313,48 136.709271,49.53 136.709271,51.39 L136.709271,56.55 C136.709271,56.73 136.589995,56.85 136.411081,56.85 C136.321624,56.85 136.083072,56.76 135.844521,56.64 L131.997872,54.69 C131.818958,54.6 131.699682,54.48 131.699682,54.39 L131.699682,52.77 C131.699682,52.26 131.192759,52.05 130.566561,52.05 C129.940362,52.05 129.433439,52.26 129.433439,52.77 Z M147.334393,48 L152.70181,48 C152.850905,48 153,48.12 153,48.3 L153,68.7 C153,68.88 152.850905,69 152.70181,69 L147.334393,69 C147.155479,69 147.036204,68.88 147.036204,68.7 L147.036204,61.35 C147.036204,61.2 146.916928,61.05 146.738014,61.05 L145.247065,61.05 C145.068151,61.05 144.948875,61.2 144.948875,61.35 L144.948875,68.7 C144.948875,68.88 144.829599,69 144.650685,69 L139.283268,69 C139.134173,69 138.985078,68.88 138.985078,68.7 L138.985078,48.3 C138.985078,48.12 139.134173,48 139.283268,48 L144.650685,48 C144.829599,48 144.948875,48.12 144.948875,48.3 L144.948875,55.53 C144.948875,55.71 145.068151,55.83 145.247065,55.83 L146.738014,55.83 C146.916928,55.83 147.036204,55.71 147.036204,55.53 L147.036204,48.3 C147.036204,48.12 147.155479,48 147.334393,48 Z" id="WASH" fill="#3A3A3A" fill-rule="nonzero"></path>
    </g>
</svg>